<svg width="99" height="106" viewBox="0 0 99 106" fill="none" xmlns="http://www.w3.org/2000/svg">
<path d="M22.3606 52.4458C22.3606 72.1638 37.4032 82.9376 53.0557 82.9376C63.605 82.9376 74.3229 77.8825 80.4533 67.4654C81.4019 65.8536 83.5441 65.2875 85.0468 66.4007L96.7214 75.0485C97.816 75.8593 98.216 77.3234 97.6182 78.5474C88.8787 96.4418 71.054 105.298 52.8524 105.298C26.6295 105.298 0 87.2064 0 52.6491C0 18.0918 26.6295 0 52.8524 0C71.054 0 88.8787 8.85645 97.6182 26.7508C98.216 27.9748 97.816 29.4389 96.7214 30.2497L85.0468 38.8975C83.5441 40.0107 81.4017 39.4445 80.4499 37.8347C74.2894 27.4164 63.4024 22.3606 52.8524 22.3606C37.4032 22.3606 22.3606 32.9311 22.3606 52.4458Z" fill="#F7FDFF"/>
<path fill-rule="evenodd" clip-rule="evenodd" d="M53.0547 77.9536C50.301 77.9536 47.7653 77.6073 45.4495 76.9717C46.1747 77.154 46.702 77.2595 46.702 77.2595C47.1728 76.9457 47.1149 76.473 47.0423 75.8804C46.956 75.1763 46.8491 74.3031 47.5837 73.3261C48.008 72.8508 48.3761 72.3281 48.6807 71.7685C48.9544 71.1469 48.9818 70.4368 49.0089 69.7356C49.0443 68.8187 49.0791 67.9172 49.6632 67.2495C49.7702 67.1272 49.8946 67.0145 50.0187 66.9022C50.301 66.6465 50.5817 66.3923 50.6519 66.0285C50.7298 65.6282 50.521 65.2599 50.3129 64.8926C50.2401 64.7643 50.1674 64.636 50.1071 64.5066C49.7846 63.8129 49.8029 63.007 49.8211 62.2125C49.8434 61.2339 49.8653 60.2726 49.2495 59.5595C48.6051 58.8127 47.6031 58.7213 46.5794 58.628C45.7868 58.5557 44.9813 58.4823 44.3189 58.1026C43.731 57.7654 43.314 57.2197 42.8973 56.6744L42.8973 56.6744C42.7179 56.4396 42.5385 56.2048 42.3455 55.9868C41.4563 55.0261 40.2797 54.3793 38.9921 54.1433C37.7045 53.9073 36.375 54.0947 35.2028 54.6775C33.3976 55.6318 33.1598 54.9729 32.9476 54.3848C32.8748 54.1831 32.805 53.9899 32.6762 53.8727C32.4609 53.6756 32.1529 53.6659 31.8469 53.6564C31.5302 53.6465 31.2157 53.6367 31.0086 53.419C30.7971 53.1974 30.7878 52.8506 30.7788 52.516C30.7684 52.1254 30.7584 51.7515 30.4278 51.6127C30.1605 51.5002 29.8487 51.644 29.5531 51.7804C29.212 51.9377 28.8924 52.0851 28.6878 51.8172C28.5956 51.6581 28.5656 51.4705 28.6036 51.2906C28.6324 50.9619 28.6559 50.6642 28.6773 50.3934C28.7861 49.0179 28.8399 48.3384 29.2433 47.8326C29.9223 46.9876 31.2083 47.1218 32.2875 47.2345L32.3058 47.2364C33.3887 47.3494 34.7769 47.159 35.0891 46.1164C35.1542 45.6477 35.1674 45.1732 35.1286 44.7016C35.2137 43.4662 36.2642 42.7052 37.3296 41.9335C38.3144 41.2201 39.3119 40.4976 39.5716 39.3827C39.6128 39.067 39.684 38.7559 39.7841 38.4536C39.9706 38.0474 40.3566 37.797 40.7433 37.5462C41.1202 37.3017 41.4978 37.0568 41.6922 36.6666C42.027 35.9934 41.6796 35.267 41.3308 34.5375C40.988 33.8206 40.6439 33.1008 40.9446 32.4259C40.9955 32.3113 41.0644 32.204 41.1328 32.0972C41.2466 31.9197 41.3593 31.7439 41.3874 31.5394C41.4878 30.8433 41.1464 29.9932 40.5232 29.5339C43.9952 27.795 48.1689 26.7833 53.0547 26.7833C56.7682 26.7833 60.0703 27.3677 62.9656 28.4117C62.4169 28.8021 61.7275 29.5501 61.7339 30.2158C61.7367 30.5161 61.8666 30.7874 61.9976 31.0609C62.0975 31.2696 62.198 31.4796 62.2433 31.7048C62.4487 32.7253 61.4951 33.572 60.639 34.1465C59.783 34.721 58.8018 35.5036 58.9204 36.5388C59.0614 37.7572 60.6507 38.2139 61.825 37.9152C62.2151 37.7704 62.6285 37.7008 63.044 37.71C63.4044 37.7563 63.7147 37.9537 64.0269 38.1523C64.2353 38.285 64.4447 38.4181 64.6704 38.5072C65.0644 38.6618 65.4886 38.6766 65.914 38.6913C66.2548 38.7032 66.5962 38.715 66.9235 38.7988C67.6592 38.9872 68.3211 39.9251 67.8084 40.4917C67.6333 40.631 67.4283 40.7265 67.2099 40.7706C66.9915 40.8147 66.7659 40.806 66.5515 40.7453C64.752 40.4988 63.484 40.0427 62.487 39.6841C60.807 39.0799 59.8964 38.7524 58.5091 40.1703C56.1745 42.5542 55.1504 44.0225 55.3533 48.7614C55.4003 49.8112 55.5268 50.9514 56.2501 51.6993C56.8983 52.3678 57.865 52.57 58.8175 52.7694C59.9062 52.9972 60.9766 53.2212 61.532 54.1329C61.9086 54.752 61.9058 55.4883 61.903 56.2323C61.9012 56.6934 61.8995 57.1574 61.988 57.5983C62.1482 58.3944 62.5922 59.0765 63.0383 59.7618C63.3622 60.2594 63.6872 60.7586 63.9055 61.3044C64.116 61.8304 64.2241 62.388 64.3323 62.9464C64.4134 63.3645 64.4946 63.7831 64.6188 64.189C65.4107 66.7713 67.7055 67.0245 69.1836 64.6771C69.9511 63.4613 70.3268 62.034 70.7002 60.6154C71.1625 58.859 71.6213 57.1159 72.816 55.8032C73.1683 55.4157 73.5732 55.0819 73.978 54.7483C74.3977 54.4022 74.8173 54.0563 75.178 53.6507C75.8865 52.854 76.3503 51.6618 75.8706 50.7046C75.7468 50.4471 75.562 50.2262 75.3771 50.0052C75.1886 49.7799 75 49.5545 74.8754 49.2897C74.4087 48.299 74.9799 47.1063 75.7619 46.3436C76.0871 46.0257 76.4807 45.7284 76.871 45.4336C77.1591 45.216 77.4454 44.9997 77.7012 44.7774C81.6377 59.5174 73.1464 77.9536 53.0547 77.9536ZM41.8742 75.6734C41.9054 75.6936 41.9376 75.7136 41.9708 75.7335C32.8973 71.705 28.0196 62.7574 27.5137 53.599C28.5473 54.4085 29.9746 55.167 31.2765 55.2621C31.5709 55.2404 31.8639 55.321 32.1057 55.4904C32.2139 55.5926 32.2754 55.7301 32.3373 55.8684C32.3857 55.9767 32.4344 56.0855 32.5058 56.1782C32.781 56.5393 33.2472 56.5454 33.7267 56.5518C34.1127 56.5568 34.5072 56.562 34.8175 56.7527C35.507 57.1773 35.3857 58.1596 35.2842 58.9817L35.2678 59.1155C34.8817 62.2817 36.6007 64.0461 38.1863 65.6737C38.7457 66.2478 39.2884 66.8049 39.7163 67.4005C41.4266 69.7771 41.649 72.7068 41.8584 75.4655L41.8742 75.6734ZM30.4254 39.5532C29.5404 41.2746 28.8379 43.1342 28.3359 45.0543C28.8836 42.9125 29.6921 40.8454 30.7636 38.9202C30.6469 39.1307 30.5341 39.3417 30.4254 39.5532Z" fill="#F7FDFF"/>
</svg>
